<svg xmlns="http://www.w3.org/2000/svg" viewBox="0 0 94.4 40.08"><defs><style>.cls-1{fill:#231f20;}</style></defs><title>mun_logo</title><g id="Layer_2" data-name="Layer 2"><g id="Layer_1-2" data-name="Layer 1"><path class="cls-1" d="M15,13.74V26.32H10V13.74Z"/><path class="cls-1" d="M22.53,13.74V26.32h-5V13.74Z"/><path class="cls-1" d="M30,16.25V26.3l0,0h-5l0,0V13.76l0,0h2.49A2.5,2.5,0,0,1,30,16.25Z"/><path class="cls-1" d="M0,0V40.06H40.06V0ZM35.07,35.07H5V5H35.07Z"/><path class="cls-1" d="M45.06,13.74h6l1.63,5,1.74-5h5.92V26.35H56.22v-6.7l-2.4,6.7h-2.2l-2.4-6.7v6.7H45.06Z"/><path class="cls-1" d="M82.26,13.74H87.5l2.73,5.85V13.74H94.4V26.35H89.94l-3.49-6.88v6.88H82.26Z"/><path class="cls-1" d="M71.23,26.31h.09a6,6,0,0,0,6-6v-6.6H72.66v6.63a1.35,1.35,0,0,1-2.71,0V13.74H65.36v6.95A6,6,0,0,0,71.23,26.31Z"/><rect class="cls-1" x="45.09" y="34.78" width="49.31" height="5.29"/></g></g></svg>